<?xml version="1.0" encoding="UTF-8"?>
<svg version="1.1" xmlns="http://www.w3.org/2000/svg" width="1024" height="1024">
<path d="M0 0 C337.92 0 675.84 0 1024 0 C1024 337.92 1024 675.84 1024 1024 C686.08 1024 348.16 1024 0 1024 C0 686.08 0 348.16 0 0 Z " fill="#FBFBFB" transform="translate(0,0)"/>
<path d="M0 0 C1.68412693 -0.00461145 3.36824984 -0.01096601 5.05236435 -0.01890898 C9.6707967 -0.03559187 14.288898 -0.02736065 18.90733147 -0.0149641 C23.89173489 -0.0059117 28.8760815 -0.01988429 33.86047363 -0.03088379 C43.62117416 -0.04867153 53.38175166 -0.04482787 63.14245701 -0.03323323 C71.07508415 -0.0242002 79.00767681 -0.02297434 86.94030762 -0.02732849 C88.0692613 -0.02794142 89.19821498 -0.02855436 90.36137938 -0.02918586 C92.65481727 -0.03046476 94.94825515 -0.03176161 97.24169302 -0.03307623 C118.74796414 -0.04448277 140.25416706 -0.03136713 161.760427 -0.00987476 C180.21434226 0.00799627 198.66815687 0.00489219 217.12207031 -0.0135498 C238.55131309 -0.03495517 259.9804961 -0.04338413 281.40974808 -0.03110075 C283.69475554 -0.02982655 285.97976302 -0.02856907 288.26477051 -0.02732849 C289.95117759 -0.02640284 289.95117759 -0.02640284 291.67165351 -0.02545848 C299.59487833 -0.02200459 307.51806523 -0.02783479 315.44128418 -0.0372467 C325.09687393 -0.04846434 334.7523336 -0.04543153 344.40790844 -0.02412373 C349.33447618 -0.01361021 354.26082704 -0.00949671 359.18739319 -0.02272034 C363.69774194 -0.03464369 368.20767285 -0.02808258 372.71798372 -0.00681013 C374.34909671 -0.00234384 375.98024503 -0.00461097 377.61133528 -0.01431328 C394.8156948 -0.10879667 394.8156948 -0.10879667 401.13980484 5.99056959 C404.41398419 9.68478103 405.75131461 12.82678652 405.91503906 17.69543457 C405.95242188 18.41086426 405.98980469 19.12629395 406.02832031 19.86340332 C404.8108505 27.42511947 400.02144005 32.64519213 394.68457031 37.78137207 C394.02672043 38.43119049 393.36887054 39.08100891 392.69108582 39.7505188 C390.60840645 41.80442389 388.51247062 43.84410665 386.41503906 45.88293457 C384.30964344 47.94580423 382.20711201 50.01151726 380.1068573 52.07962036 C378.80387946 53.36091112 377.49743224 54.63868522 376.18721008 55.91256714 C375.59957382 56.4872171 375.01193756 57.06186707 374.40649414 57.65393066 C373.88783279 58.15830658 373.36917145 58.6626825 372.83479309 59.18234253 C371.48370104 60.51109212 371.48370104 60.51109212 370.60253906 62.50793457 C358.60253906 60.50793457 358.60253906 60.50793457 355.98632812 60.00231934 C348.23238785 58.56757053 340.73024209 58.15806869 332.85253906 58.19543457 C331.00656128 58.2028064 331.00656128 58.2028064 329.12329102 58.21032715 C295.3551028 58.64430835 265.30379541 74.30057921 241.78393555 97.96252441 C226.57785406 113.70553502 216.33477114 133.47501449 210.60253906 154.50793457 C210.09400391 156.32164551 210.09400391 156.32164551 209.57519531 158.17199707 C202.05063304 190.55882271 209.52247115 224.23868882 226.13183594 252.42297363 C227.60743133 254.64344437 227.60743133 254.64344437 229.87011719 256.75695801 C238.69290565 266.16120096 237.78486047 276.1568387 237.44628906 288.44592285 C237.35218367 291.89596396 237.32329473 295.3418886 237.30566406 298.79309082 C237.27817138 300.99756796 237.24704954 303.20200349 237.21191406 305.40637207 C237.19916443 306.43144867 237.18641479 307.45652527 237.17327881 308.51266479 C237.01287021 313.86572733 236.70257083 317.94037315 233.60253906 322.50793457 C227.79094409 327.91559276 218.98034257 330.7411707 211.85253906 334.00793457 C210.53028126 334.61866995 209.20826364 335.22992556 207.88647461 335.8416748 C205.15742961 337.10393447 202.42712013 338.36339709 199.69580078 339.62072754 C195.72415906 341.45010336 191.75820781 343.29153798 187.79394531 345.13684082 C174.99328412 351.09344127 174.99328412 351.09344127 170.6328125 353.10412598 C168.59443038 354.04842965 166.56126022 355.00405772 164.53320312 355.97033691 C163.56737305 356.42489258 162.60154297 356.87944824 161.60644531 357.34777832 C160.75767822 357.75246338 159.90891113 358.15714844 159.03442383 358.57409668 C154.06064013 360.48401764 149.63547794 360.30343239 144.72753906 358.38293457 C141.304936 355.36299069 139.77796209 351.98954905 139.24291801 347.4705925 C139.25353862 345.85020506 139.25353862 345.85020506 139.26437378 344.19708252 C139.26484207 342.94957718 139.26531036 341.70207184 139.26579285 340.41676331 C139.28131807 339.04708627 139.29705702 337.67741164 139.31298828 336.30773926 C139.31871048 334.85512268 139.32298065 333.40249977 139.32591248 331.94987488 C139.33450053 328.82815915 139.35173398 325.70665275 139.37524033 322.58501434 C139.41078737 317.64182137 139.41704329 312.69885945 139.41751099 307.7555542 C139.42246412 293.70095572 139.4515466 279.64672268 139.54394531 265.59240723 C139.59476552 257.82502235 139.61329857 250.05824827 139.59635746 242.29070783 C139.58885186 238.18521144 139.5980728 234.08127255 139.64760971 229.97603607 C139.69424549 226.11104168 139.69875764 222.24822774 139.6720295 218.38306618 C139.66969181 216.97137401 139.68254366 215.55955477 139.71238899 214.14817619 C139.86439306 206.53442005 139.42029128 201.61336749 134.23953247 195.79559326 C132.7212896 194.33727718 131.17775641 192.90451522 129.60253906 191.50793457 C128.5093944 190.40828158 127.42152559 189.3032859 126.34472656 188.18762207 C125.39172284 187.24994816 124.43609208 186.31493487 123.47753906 185.38293457 C120.34556335 182.3362988 117.35204942 179.2487611 114.51660156 175.92199707 C109.37079836 169.97476359 103.69397529 164.53092419 98.10253906 159.00793457 C85.73456025 146.79135625 85.73456025 146.79135625 80.37792969 140.50598145 C76.49856851 136.14009972 72.25992142 132.10651379 68.10253906 128.00793457 C57.94035817 117.98949032 57.94035817 117.98949032 54.22753906 113.63293457 C49.20217736 107.7650683 43.59511113 102.43327025 38.10253906 97.00793457 C25.73456025 84.79135625 25.73456025 84.79135625 20.37792969 78.50598145 C16.49856851 74.14009972 12.25992142 70.10651379 8.10253906 66.00793457 C2.58855541 60.5719422 -2.8269347 55.14271924 -7.86425781 49.25939941 C-10.08515652 46.72234092 -12.47238602 44.4134849 -14.89746094 42.07043457 C-29.6212502 27.48841495 -29.6212502 27.48841495 -29.83496094 17.69543457 C-29.7361162 12.92181504 -29.33399008 9.58950245 -26.02261734 6.03012037 C-18.57813976 -0.94267194 -9.52017604 -0.05662942 0 0 Z " fill="#646467" transform="translate(299.3974609375,466.4920654296875)"/>
<path d="M0 0 C23.08436103 18.46111193 38.66850869 43.81507179 42.828125 73.26171875 C43.11070727 77.16267608 43.16258355 81.03900529 43.140625 84.94921875 C43.13325317 86.52014282 43.13325317 86.52014282 43.12573242 88.12280273 C42.8484285 106.63390575 37.91923003 123.56581023 28.77490234 139.62866211 C28.39414551 140.30550049 28.01338867 140.98233887 27.62109375 141.6796875 C27.2758667 142.27547607 26.93063965 142.87126465 26.57495117 143.48510742 C25.56977906 145.55509337 25.56977906 145.55509337 25.828125 149.26171875 C27.02978131 151.02772808 27.02978131 151.02772808 28.765625 152.62158203 C29.40628906 153.25548859 30.04695312 153.88939514 30.70703125 154.54251099 C31.40699219 155.21555267 32.10695313 155.88859436 32.828125 156.58203125 C33.53839844 157.28190155 34.24867188 157.98177185 34.98046875 158.70285034 C37.25376894 160.94047415 39.53996271 163.16430274 41.828125 165.38671875 C44.11451345 167.61796151 46.39797043 169.85201099 48.67578125 172.0920105 C50.09485125 173.48647292 51.51923074 174.87555554 52.94921875 176.25881958 C53.58988281 176.88642181 54.23054687 177.51402405 54.890625 178.16064453 C55.45910156 178.71261505 56.02757812 179.26458557 56.61328125 179.83328247 C57.828125 181.26171875 57.828125 181.26171875 57.828125 183.26171875 C58.488125 183.26171875 59.148125 183.26171875 59.828125 183.26171875 C61.08886719 184.5546875 61.08886719 184.5546875 62.625 186.44921875 C65.92602657 190.33519407 69.43939165 193.9021623 73.09375 197.44921875 C73.65743286 198.00013184 74.22111572 198.55104492 74.80187988 199.11865234 C77.15320581 201.41661039 79.5059913 203.71255732 81.87792969 205.98925781 C83.62828362 207.67262171 85.36193524 209.37181418 87.09375 211.07421875 C87.62502502 211.57655029 88.15630005 212.07888184 88.70367432 212.59643555 C93.11418747 216.9750001 95.4457261 221.65774011 96.11328125 227.94921875 C95.49225814 234.39914302 93.58419215 238.77465992 88.828125 243.26171875 C83.65212462 246.44694975 77.79441431 247.56283206 71.828125 246.26171875 C63.7614355 242.02265024 57.8162626 235.6504947 51.48046875 229.2421875 C50.29856557 228.05721976 49.11606461 226.87284798 47.93299866 225.68904114 C45.46333604 223.21479521 42.99863739 220.73575 40.5378418 218.25268555 C37.40230152 215.08889624 34.25818264 211.93381483 31.11072445 208.7818861 C28.08498391 205.750959 25.06392253 202.71538422 22.04296875 199.6796875 C21.4758058 199.11064383 20.90864285 198.54160015 20.32429314 197.95531273 C14.77588896 192.38312936 9.2643556 186.81546735 4.16798401 180.81929016 C2.48603959 178.86404821 0.68808158 177.04727707 -1.171875 175.26171875 C-4.59748868 176.53804582 -7.54115437 178.03359384 -10.609375 180.01171875 C-33.98040353 194.18645499 -63.69696709 198.59333184 -90.296875 192.19921875 C-119.13788956 184.67050544 -143.64393458 166.94311931 -158.88110352 141.24023438 C-172.28151511 117.7789902 -177.55927072 89.43159532 -171.203125 62.859375 C-166.21065026 45.44244609 -159.23904831 29.99252178 -147.171875 16.26171875 C-146.49769531 15.44445312 -145.82351563 14.6271875 -145.12890625 13.78515625 C-108.96731485 -28.76564164 -43.73755926 -32.80316944 0 0 Z " fill="#FAFAFA" transform="translate(698.171875,565.73828125)"/>
<path d="M0 0 C0.86342931 -0.00445784 1.72685862 -0.00891569 2.61645246 -0.01350862 C4.03238631 -0.01323207 4.03238631 -0.01323207 5.4769249 -0.01294994 C6.98654081 -0.01846498 6.98654081 -0.01846498 8.52665401 -0.02409142 C11.9089882 -0.03513063 15.29129168 -0.0389725 18.6736412 -0.04278088 C21.09471866 -0.04904527 23.51579514 -0.05569205 25.93687057 -0.0626936 C33.2085677 -0.08191989 40.48026227 -0.09252095 47.75197709 -0.10142139 C51.17785935 -0.10580703 54.60374008 -0.11117306 58.02962112 -0.11641026 C69.42010935 -0.13341937 80.81059661 -0.14791362 92.20109558 -0.155159 C95.15564856 -0.15706883 98.11020154 -0.15898917 101.06475449 -0.16094494 C102.16623652 -0.16167055 102.16623652 -0.16167055 103.28997073 -0.16241082 C115.18600199 -0.17071151 127.08193272 -0.19605045 138.97792009 -0.22852562 C151.19578144 -0.26160718 163.41359172 -0.27960868 175.6314981 -0.28280324 C182.48962629 -0.28496716 189.34760779 -0.29369865 196.20569229 -0.31926441 C202.6571196 -0.34325905 209.1083546 -0.3467902 215.55982018 -0.33650303 C217.9269314 -0.33600686 220.2940555 -0.34235115 222.66112709 -0.35605907 C225.89455847 -0.37373573 229.12703793 -0.36669186 232.36046982 -0.35352612 C233.29550284 -0.36449536 234.23053586 -0.37546461 235.19390321 -0.38676625 C243.72478027 -0.3029971 249.42237195 2.51233057 255.62473679 8.34834766 C256.46990042 9.13822638 257.31506405 9.92810509 258.1858387 10.74191952 C259.00649126 11.53137903 259.82714382 12.32083855 260.67266464 13.13422108 C261.40489054 13.83645235 262.13711643 14.53868362 262.89153099 15.26219463 C265.08974277 17.39565483 267.26720807 19.54837078 269.43951035 21.70819569 C270.25223907 22.51274693 271.0649678 23.31729816 271.90232468 24.14622974 C274.55400146 26.77336819 277.2017662 29.40439261 279.84844589 32.03656483 C280.75976965 32.94256491 281.67109341 33.84856499 282.61003304 34.78201962 C286.43920119 38.5900427 290.26735996 42.39906689 294.09163761 46.2120018 C299.53241499 51.63651884 304.98154749 57.0523249 310.44253474 62.45649809 C314.77395434 66.74440676 319.09147179 71.04607874 323.40437508 75.35260677 C325.22969924 77.17123455 327.05926253 78.98561832 328.89320946 80.79555035 C331.45835192 83.32897758 334.00716906 85.87783151 336.5527916 88.43085194 C337.68045441 89.53390675 337.68045441 89.53390675 338.83089828 90.65924549 C348.18266702 100.12227185 350.31329358 108.03050684 350.29476547 121.00722218 C350.27707502 122.8505037 350.25890105 124.69378063 350.2402916 126.53705311 C350.23887959 128.49909396 350.23967607 130.46113745 350.24250412 132.42317677 C350.24393373 137.72636845 350.21461748 143.02899016 350.17963433 148.33204985 C350.14829499 153.88268489 350.14543412 159.43333421 350.13950729 164.98404408 C350.12399112 175.48467083 350.0829927 185.98503609 350.03275985 196.4855479 C349.97679713 208.44440283 349.94936244 220.4032705 349.92428267 232.36222386 C349.87207495 256.95303928 349.78316411 281.54360446 349.67266464 306.13422108 C340.43266464 306.13422108 331.19266464 306.13422108 321.67266464 306.13422108 C321.67266464 245.74422108 321.67266464 185.35422108 321.67266464 123.13422108 C295.93266464 123.13422108 270.19266464 123.13422108 243.67266464 123.13422108 C229.68043897 116.13810824 229.68043897 116.13810824 226.61458969 108.49722767 C225.55756783 104.72328462 225.40565617 101.26589391 225.44561386 97.38470936 C225.44532181 96.63280827 225.44502975 95.88090717 225.44472885 95.1062212 C225.44611413 92.63887162 225.46163716 90.17182993 225.47735214 87.70453358 C225.48108513 85.98675164 225.48393075 84.26896757 225.48592758 82.55118275 C225.49354153 78.04338102 225.5131707 73.53570941 225.53533554 69.02795887 C225.55584229 64.42277251 225.56493961 59.817565 225.57500839 55.21234608 C225.59641879 46.18624743 225.63052759 37.1602451 225.67266464 28.13422108 C197.22145434 28.21612702 168.77029364 28.30813832 140.31916275 28.41427269 C136.96084139 28.42679168 133.60251972 28.43922443 130.24419785 28.45160389 C129.24131861 28.45530288 129.24131861 28.45530288 128.21817919 28.4590766 C117.39013881 28.49880875 106.562088 28.53155407 95.73401723 28.56172089 C84.62481065 28.59282635 73.51564668 28.63157991 62.40648907 28.67701113 C56.16606195 28.70228858 49.92566628 28.72406624 43.68520164 28.73756504 C37.81412087 28.75037401 31.94314788 28.77241598 26.07212639 28.80160427 C23.9150242 28.81068914 21.75790464 28.81637239 19.6007843 28.81843472 C16.65968099 28.82175079 13.71888447 28.83721073 10.77784348 28.85574818 C9.92083526 28.85381344 9.06382705 28.85187871 8.1808489 28.84988534 C2.57934928 28.90280366 -1.20613116 29.32307937 -5.60739899 33.08100128 C-8.18106724 37.64976032 -7.88498483 41.82374082 -7.84631729 46.9857378 C-7.85756917 48.64598469 -7.85756917 48.64598469 -7.86904836 50.33977193 C-7.88937916 54.05570534 -7.88121186 57.77103173 -7.8732338 61.48700428 C-7.88196588 64.14782924 -7.89227486 66.80860446 -7.90456009 69.4694109 C-7.92787748 75.20155785 -7.93662041 80.93357829 -7.93545151 86.66577053 C-7.93378257 94.95351605 -7.95411385 103.24109284 -7.97980681 111.52879336 C-8.02089515 124.9751419 -8.04420258 138.42146011 -8.05633926 151.86786366 C-8.06816664 164.92941676 -8.0883612 177.99091274 -8.11981583 191.05243397 C-8.12175193 191.85760916 -8.12368803 192.66278434 -8.1256828 193.49235878 C-8.13544734 197.53170519 -8.14537646 201.57105118 -8.1553874 205.61039698 C-8.2382191 239.11831649 -8.29110265 272.62621942 -8.32733536 306.13422108 C-17.56733536 306.13422108 -26.80733536 306.13422108 -36.32733536 306.13422108 C-36.41780238 271.271081 -36.48939621 236.40798209 -36.53159668 201.54475004 C-36.53659937 197.42678707 -36.54177667 193.30882433 -36.54706192 189.1908617 C-36.54811116 188.37106574 -36.5491604 187.55126979 -36.55024144 186.70663153 C-36.56763631 173.44080474 -36.59916892 160.17504743 -36.63594654 146.90926184 C-36.67338155 133.29256846 -36.69557662 119.67591142 -36.70368934 106.0591687 C-36.70917181 97.66007333 -36.72647401 89.2611744 -36.75900123 80.86213951 C-36.78018074 75.09891871 -36.78652765 69.33579914 -36.78134087 63.57254227 C-36.77878434 60.24965533 -36.78484418 56.92738679 -36.80415726 53.60451412 C-36.8241056 49.99501419 -36.81925579 46.38634963 -36.80835342 42.77682972 C-36.82000479 41.73594735 -36.83165616 40.69506499 -36.84366059 39.62264073 C-36.75878295 29.20135755 -33.0142547 20.12880465 -26.32733536 12.13422108 C-19.17079614 5.30175156 -10.09571901 0.02425465 0 0 Z " fill="#626366" transform="translate(340.327335357666,137.86577892303467)"/>
<path d="M0 0 C23.08436103 18.46111193 38.66850869 43.81507179 42.828125 73.26171875 C43.11070727 77.16267608 43.16258355 81.03900529 43.140625 84.94921875 C43.13325317 86.52014282 43.13325317 86.52014282 43.12573242 88.12280273 C42.8484285 106.63390575 37.91923003 123.56581023 28.77490234 139.62866211 C28.39414551 140.30550049 28.01338867 140.98233887 27.62109375 141.6796875 C27.2758667 142.27547607 26.93063965 142.87126465 26.57495117 143.48510742 C25.56977906 145.55509337 25.56977906 145.55509337 25.828125 149.26171875 C27.02978131 151.02772808 27.02978131 151.02772808 28.765625 152.62158203 C29.40628906 153.25548859 30.04695312 153.88939514 30.70703125 154.54251099 C31.40699219 155.21555267 32.10695313 155.88859436 32.828125 156.58203125 C33.53839844 157.28190155 34.24867188 157.98177185 34.98046875 158.70285034 C37.25376894 160.94047415 39.53996271 163.16430274 41.828125 165.38671875 C44.11451345 167.61796151 46.39797043 169.85201099 48.67578125 172.0920105 C50.09485125 173.48647292 51.51923074 174.87555554 52.94921875 176.25881958 C53.58988281 176.88642181 54.23054687 177.51402405 54.890625 178.16064453 C55.45910156 178.71261505 56.02757812 179.26458557 56.61328125 179.83328247 C57.828125 181.26171875 57.828125 181.26171875 57.828125 183.26171875 C58.488125 183.26171875 59.148125 183.26171875 59.828125 183.26171875 C61.08886719 184.5546875 61.08886719 184.5546875 62.625 186.44921875 C65.92602657 190.33519407 69.43939165 193.9021623 73.09375 197.44921875 C73.65743286 198.00013184 74.22111572 198.55104492 74.80187988 199.11865234 C77.15320581 201.41661039 79.5059913 203.71255732 81.87792969 205.98925781 C83.62828362 207.67262171 85.36193524 209.37181418 87.09375 211.07421875 C87.62502502 211.57655029 88.15630005 212.07888184 88.70367432 212.59643555 C93.11418747 216.9750001 95.4457261 221.65774011 96.11328125 227.94921875 C95.49225814 234.39914302 93.58419215 238.77465992 88.828125 243.26171875 C83.65212462 246.44694975 77.79441431 247.56283206 71.828125 246.26171875 C63.7614355 242.02265024 57.8162626 235.6504947 51.48046875 229.2421875 C50.29856557 228.05721976 49.11606461 226.87284798 47.93299866 225.68904114 C45.46333604 223.21479521 42.99863739 220.73575 40.5378418 218.25268555 C37.40230152 215.08889624 34.25818264 211.93381483 31.11072445 208.7818861 C28.08498391 205.750959 25.06392253 202.71538422 22.04296875 199.6796875 C21.4758058 199.11064383 20.90864285 198.54160015 20.32429314 197.95531273 C14.77588896 192.38312936 9.2643556 186.81546735 4.16798401 180.81929016 C2.48603959 178.86404821 0.68808158 177.04727707 -1.171875 175.26171875 C-4.59748868 176.53804582 -7.54115437 178.03359384 -10.609375 180.01171875 C-33.98040353 194.18645499 -63.69696709 198.59333184 -90.296875 192.19921875 C-119.13788956 184.67050544 -143.64393458 166.94311931 -158.88110352 141.24023438 C-172.28151511 117.7789902 -177.55927072 89.43159532 -171.203125 62.859375 C-166.21065026 45.44244609 -159.23904831 29.99252178 -147.171875 16.26171875 C-146.49769531 15.44445312 -145.82351563 14.6271875 -145.12890625 13.78515625 C-108.96731485 -28.76564164 -43.73755926 -32.80316944 0 0 Z M-93.171875 9.26171875 C-94.11498535 9.66438965 -94.11498535 9.66438965 -95.07714844 10.07519531 C-116.2670136 19.30551284 -133.01130096 34.5694297 -141.76049805 56.31713867 C-149.77447514 77.40825441 -148.90077622 98.53875302 -140.984375 119.51171875 C-131.43225201 140.66490953 -113.64161167 156.01954446 -92.171875 164.26171875 C-87.87307463 165.49337058 -83.56950836 166.45847166 -79.171875 167.26171875 C-78.21410156 167.44734375 -77.25632812 167.63296875 -76.26953125 167.82421875 C-55.92912146 170.69701307 -35.28296611 165.48625694 -18.171875 154.26171875 C-13.86043872 150.9155294 -10.00412645 147.13808245 -6.171875 143.26171875 C-5.43066406 142.53082031 -4.68945312 141.79992187 -3.92578125 141.046875 C11.24401019 125.16738572 17.27393131 103.66402857 17.19458008 82.13037109 C16.81127864 67.74671945 11.82603463 55.65340181 4.828125 43.26171875 C4.12042969 41.98361328 4.12042969 41.98361328 3.3984375 40.6796875 C-7.79697665 22.29668498 -26.97343028 11.3409341 -47.328125 6.125 C-61.69377589 3.10105578 -79.61906686 3.36774568 -93.171875 9.26171875 Z " fill="#626366" transform="translate(698.171875,565.73828125)"/>
<path d="M0 0 C1.38076072 -0.00679667 1.38076072 -0.00679667 2.7894156 -0.01373065 C5.88702491 -0.02643385 8.98445974 -0.02475045 12.08209229 -0.02310181 C14.29775215 -0.02908344 16.51340993 -0.03588813 18.72906494 -0.04345703 C24.75810174 -0.06116331 30.7870818 -0.06581441 36.81614208 -0.0670886 C41.8459433 -0.06898522 46.87573124 -0.07634017 51.90552735 -0.08343279 C63.09402046 -0.09880091 74.28249256 -0.10476914 85.47099397 -0.10342209 C86.14251969 -0.10334218 86.81404542 -0.10326227 87.50592041 -0.10317993 C88.17826667 -0.10309817 88.85061293 -0.10301641 89.54333332 -0.10293217 C100.4345702 -0.10211964 111.32566866 -0.12124765 122.21686551 -0.14945666 C133.40072997 -0.17819493 144.58454378 -0.19163024 155.76845002 -0.19026911 C162.04696736 -0.18975885 168.32532818 -0.19547718 174.60381317 -0.21662521 C180.51027614 -0.23597578 186.41643278 -0.23615362 192.32290649 -0.22159195 C194.49047543 -0.21949868 196.65806337 -0.22423545 198.82559967 -0.23631287 C201.78578673 -0.25173798 204.74491406 -0.24247476 207.70507812 -0.22705078 C208.56199619 -0.23733791 209.41891426 -0.24762503 210.30179954 -0.25822389 C216.04288841 -0.19216371 219.37699875 0.97209087 224.10650635 4.26742554 C226.56476424 7.20147528 227.06508541 8.88773358 227.48150635 12.70492554 C226.9303261 17.94113793 225.6189441 20.98875203 221.57050323 24.41146088 C217.11208155 26.80022546 213.78159449 26.82686764 208.80755615 26.77536011 C207.87969661 26.78160007 206.95183707 26.78784003 205.99586058 26.79426908 C202.89120688 26.81020563 199.78733755 26.79759199 196.68267822 26.78500366 C194.4550989 26.79042447 192.22752316 26.79754689 189.99995422 26.8062439 C183.95248951 26.8244849 177.90529765 26.81740633 171.85782814 26.80472755 C165.53051643 26.79460402 159.20322815 26.80399144 152.87591553 26.81027222 C141.5693772 26.81801675 130.26297747 26.80558222 118.95646685 26.78523487 C108.70905523 26.76736429 98.46182486 26.77046854 88.2144165 26.78890991 C76.30874833 26.81032554 64.40319025 26.81827898 52.49749613 26.80646086 C46.19727635 26.80022312 39.89718138 26.79939815 33.5969696 26.81260681 C27.67402651 26.824157 21.7514259 26.81615434 15.82851982 26.79302979 C13.6540884 26.78773831 11.47962819 26.78926392 9.30520821 26.79808044 C6.33823451 26.80900185 3.37236009 26.79531288 0.40545654 26.77536011 C-0.8870567 26.78874444 -0.8870567 26.78874444 -2.20568132 26.80239916 C-7.56992594 26.73236662 -10.64389042 25.84160799 -14.89349365 22.26742554 C-18.00207326 17.95552479 -18.31503066 14.48706975 -17.54193115 9.38461304 C-14.99623347 1.07275676 -7.44964765 -0.02664817 0 0 Z " fill="#616265" transform="translate(392.89349365234375,367.7325744628906)"/>
<path d="M0 0 C1.40147669 -0.00913666 1.40147669 -0.00913666 2.83126605 -0.01845789 C5.96963413 -0.03513923 9.10759876 -0.0303047 12.2460022 -0.0255127 C14.49299035 -0.03285006 16.73997472 -0.04143531 18.98695374 -0.05117798 C25.09646226 -0.07343825 31.2058361 -0.07632237 37.31537962 -0.07443047 C42.41243526 -0.07431097 47.50946214 -0.08286673 52.6065098 -0.09120798 C65.31798372 -0.1115599 78.02935779 -0.11258619 90.7408361 -0.10540086 C101.7782178 -0.09982608 112.81536735 -0.12064757 123.85269479 -0.15376133 C135.18690183 -0.18750171 146.52096443 -0.2021916 157.85523474 -0.1980443 C164.21812929 -0.19597412 170.58079268 -0.20149775 176.94364548 -0.22593689 C182.9273336 -0.24815942 188.91053787 -0.24636318 194.89422798 -0.22600937 C197.09124309 -0.22259134 199.28829049 -0.22772233 201.48526192 -0.24199295 C204.48317387 -0.26012341 207.47943362 -0.24748179 210.47729492 -0.22705078 C211.34811655 -0.23956863 212.21893819 -0.25208648 213.11614835 -0.26498365 C217.33491447 -0.20328224 220.02894812 0.09837815 223.36597633 2.80605316 C226.19264139 5.73302356 227.76347071 7.49082043 227.9828186 11.57800293 C227.44017057 16.62813064 226.71152664 19.7682791 222.8656311 23.39440918 C220.08807819 25.03378644 218.0589365 25.64506613 214.84505653 25.65167809 C213.65256434 25.66135142 213.65256434 25.66135142 212.43598139 25.67122018 C211.13472962 25.66657438 211.13472962 25.66657438 209.80718994 25.66183472 C208.88103925 25.66636583 207.95488856 25.67089694 207.0006727 25.67556536 C203.890016 25.68824936 200.77953349 25.68658641 197.66885376 25.68493652 C195.4415718 25.69091925 193.21429191 25.69772421 190.98701477 25.70529175 C184.93124572 25.72298446 178.87553317 25.7276485 172.81974077 25.72892332 C167.76742719 25.73082073 162.71512682 25.7381764 157.66281831 25.74526751 C146.42575926 25.76063028 135.18872695 25.76660431 123.95166059 25.76525681 C122.94034552 25.76513694 122.94034552 25.76513694 121.90859985 25.76501465 C121.23356617 25.76493289 120.55853248 25.76485113 119.86304323 25.76476689 C108.92269574 25.76395395 97.98248591 25.78309356 87.04217823 25.81129138 C75.8074324 25.84001951 64.57275167 25.85346544 53.33796155 25.85210383 C47.03098668 25.8515934 40.72416759 25.85732163 34.41722488 25.87845993 C28.48612887 25.89779533 22.55533799 25.89799881 16.62423134 25.88342667 C14.44656619 25.88133167 12.26888218 25.88608036 10.09124947 25.89814758 C7.11981871 25.91354796 4.14944695 25.90432602 1.17803955 25.8888855 C0.31499982 25.89917262 -0.54803992 25.90945975 -1.43723238 25.92005861 C-6.81349987 25.85826396 -9.86192149 24.95645298 -14.1343689 21.39440918 C-16.50739056 18.46768246 -17.09403516 16.71131714 -17.5718689 12.95690918 C-16.96746344 8.03532185 -14.93281434 5.28164395 -11.56464195 1.74718475 C-7.81512578 -0.339928 -4.22349509 -0.02570879 0 0 Z " fill="#606164" transform="translate(392.1343688964844,303.6055908203125)"/>
<path d="M0 0 C1.67592728 -0.01268921 1.67592728 -0.01268921 3.38571167 -0.02563477 C4.60195724 -0.01956207 5.81820282 -0.01348938 7.07130432 -0.00723267 C8.35962158 -0.01248962 9.64793884 -0.01774658 10.97529602 -0.02316284 C14.50223624 -0.03681999 18.02891269 -0.0315442 21.55585742 -0.02202559 C25.25128552 -0.01441901 28.94669136 -0.02147752 32.64212036 -0.02618408 C38.84853663 -0.03163942 45.05484574 -0.0244566 51.26124573 -0.01016235 C58.42937994 0.00615661 65.59725806 0.00088036 72.76538604 -0.01564157 C78.92606144 -0.02927139 85.0866599 -0.03116859 91.24734551 -0.02332556 C94.92403837 -0.01865631 98.600611 -0.01800335 102.27729607 -0.02793503 C106.37805631 -0.03823869 110.47837772 -0.02394294 114.57911682 -0.00723267 C115.79333817 -0.01330536 117.00755951 -0.01937805 118.25857544 -0.02563477 C128.63611155 0.05274048 128.63611155 0.05274048 133.38990784 3.38095093 C136.81700295 7.25897961 138.06386281 10.34833584 137.77272034 15.42391968 C136.91313397 19.81833569 134.62869942 22.5170172 131.03442383 25.02366638 C125.6128325 27.04276635 120.4434918 26.80650872 114.70265198 26.78500366 C112.78699684 26.79529854 112.78699684 26.79529854 110.8326416 26.80580139 C107.3408295 26.82370149 103.84926913 26.82257044 100.35742497 26.81685901 C97.43750474 26.81376252 94.51763253 26.81986472 91.59771913 26.82589775 C84.70687463 26.83993106 77.81615414 26.83839173 70.92530823 26.82699585 C63.82698651 26.81551593 56.72904267 26.8295906 49.63077074 26.85639232 C43.5261053 26.87857553 37.42155824 26.88518082 31.31685537 26.87931591 C27.67530766 26.87595133 24.03400213 26.87832783 20.39248848 26.89556694 C16.33026969 26.91395946 12.26878239 26.89982223 8.20655823 26.88265991 C7.00685394 26.89232788 5.80714966 26.90199585 4.5710907 26.91195679 C-2.02900773 26.85356789 -6.29196239 26.42496253 -11.61009216 22.38095093 C-14.58425546 18.06361711 -15.25874707 14.57019017 -14.61009216 9.38095093 C-11.25335331 2.91612053 -7.30167652 0.00852837 0 0 Z " fill="#636467" transform="translate(389.61009216308594,238.61904907226563)"/>
<path d="M0 0 C3.44524521 3.03509697 5.19851782 5.67989397 5.94140625 10.265625 C6.24509816 15.39899791 4.99466885 18.30532623 1.625 22.3125 C-0.4375 24.625 -0.4375 24.625 -3.375 26.3125 C-5.08997889 26.38426376 -6.80695802 26.41315029 -8.5234375 26.4140625 C-15.46354858 26.95389335 -18.50778742 30.32417874 -22.9375 35.375 C-24.3099996 36.8693867 -25.68611204 38.36046607 -27.06640625 39.84765625 C-27.65623291 40.511604 -28.24605957 41.17555176 -28.85375977 41.85961914 C-30.375 43.3125 -30.375 43.3125 -32.375 43.3125 C-32.148125 44.34375 -31.92125 45.375 -31.6875 46.4375 C-31.32618874 50.91775956 -31.90694429 52.61041644 -34.375 56.3125 C-38.69306222 60.20928785 -41.37316256 61.68617126 -47.28125 61.58984375 C-52.02032087 60.96209369 -54.7336707 58.07516187 -57.6875 54.5625 C-59.375 51.3125 -59.375 51.3125 -59.5 47.5 C-59.82215302 43.18810576 -61.91561168 41.44828878 -65.0625 38.625 C-66.83231549 37.18624704 -68.60305126 35.74862486 -70.375 34.3125 C-70.87128906 33.75820313 -71.36757813 33.20390625 -71.87890625 32.6328125 C-75.03885045 29.12616596 -78.3943575 28.80171081 -82.859375 28.5078125 C-89.02947626 28.59485528 -91.88477355 29.84437753 -96.34375 34.08984375 C-98.2523637 36.09033997 -100.06939727 38.1566173 -101.875 40.25 C-103.2766104 41.8204122 -104.68820693 43.37965357 -106.11535645 44.92689514 C-107.39754242 46.32471435 -108.64807326 47.75137855 -109.89648438 49.17944336 C-112.80455924 51.68218667 -114.57301145 52.17433495 -118.375 52.3125 C-120.75 50.875 -120.75 50.875 -122.375 49.3125 C-122.35123734 45.62928765 -122.20208087 43.3629987 -119.88916016 40.42529297 C-117.88177839 38.45400591 -115.81494404 36.5910211 -113.6875 34.75 C-112.26617915 33.47870028 -110.84559549 32.20657586 -109.42578125 30.93359375 C-108.7395166 30.3288623 -108.05325195 29.72413086 -107.34619141 29.10107422 C-105.48282561 27.41033632 -103.72748585 25.65731328 -101.98046875 23.84765625 C-99.375 21.3125 -99.375 21.3125 -97.375 21.3125 C-97.49359375 20.74402344 -97.6121875 20.17554688 -97.734375 19.58984375 C-98.57644758 14.54582899 -98.65824546 11.13503625 -95.73828125 6.8203125 C-92.31888683 3.03840349 -88.81521028 1.51463478 -83.8125 0.8125 C-78.60709627 1.56964963 -75.76148787 3.96348478 -72.0625 7.5625 C-70.375 10.3125 -70.375 10.3125 -70.3125 14.0625 C-70.07373562 17.30724673 -69.4497229 18.23609357 -67.12109375 20.6171875 C-65.18275392 22.18368255 -63.20970319 23.70804077 -61.20703125 25.19140625 C-58.83378922 26.96888269 -56.96327956 28.73863198 -54.9375 30.875 C-51.21115703 33.93341357 -47.64610126 34.70532814 -42.86328125 34.48046875 C-37.86711418 32.80761998 -34.5029452 29.93828521 -30.625 26.4375 C-29.90900635 25.80755127 -29.1930127 25.17760254 -28.45532227 24.52856445 C-25.61219422 21.74783892 -23.58832176 19.72783079 -22.98266602 15.70947266 C-22.97968066 13.07719254 -22.97968066 13.07719254 -23.27270508 10.59277344 C-23.45728413 6.47829051 -21.88401103 4.52918081 -19.375 1.3125 C-13.3650299 -4.07467527 -6.91348601 -3.45674301 0 0 Z " fill="#616265" transform="translate(690.375,622.6875)"/>
<path d="M0 0 C0.33 0 0.66 0 1 0 C1 90.42 1 180.84 1 274 C9.25 274 17.5 274 26 274 C26 185.56 26 97.12 26 6 C26.33 6 26.66 6 27 6 C27 95.1 27 184.2 27 276 C17.76 276 8.52 276 -1 276 C-1.02258429 240.98364814 -1.04049766 205.96729861 -1.05106533 170.950941 C-1.05231611 166.82137927 -1.05361042 162.69181756 -1.05493164 158.56225586 C-1.05519395 157.74009911 -1.05545626 156.91794236 -1.05572652 156.07087176 C-1.06008344 142.74080076 -1.06797111 129.41073405 -1.0771528 116.0806656 C-1.08648872 102.41316105 -1.09205548 88.74565877 -1.09408849 75.07815117 C-1.09546385 66.63765223 -1.09981511 58.19716543 -1.10791647 49.75667023 C-1.11318317 43.97671505 -1.11480447 38.19676619 -1.11350138 32.41680879 C-1.11285788 29.07700737 -1.11441525 25.73724444 -1.11920547 22.39744377 C-1.12413526 18.78505116 -1.12300094 15.17271168 -1.12025452 11.56031799 C-1.12316736 10.49322005 -1.1260802 9.42612211 -1.12908131 8.32668787 C-1.12709026 7.36676304 -1.12509921 6.40683821 -1.12304783 5.41782475 C-1.12342755 4.58281974 -1.12380727 3.74781473 -1.1241985 2.88750654 C-1 1 -1 1 0 0 Z " fill="#4A4C4F" transform="translate(305,168)"/>
<path d="M0 0 C7.42857143 -0.28571429 7.42857143 -0.28571429 11 2 C7.32589215 3.17571451 3.83070817 3.07366746 0 3 C0 2.01 0 1.02 0 0 Z " fill="#6C6D6F" transform="translate(619,757)"/>
<path d="M0 0 C0.99 0 1.98 0 3 0 C3 2.31 3 4.62 3 7 C2.01 7 1.02 7 0 7 C0 4.69 0 2.38 0 0 Z " fill="#6E6F71" transform="translate(525,640)"/>
</svg>
